HIERARCHY
ROOT Hips
{
	OFFSET 190.886993 90.533302 318.949097
	CHANNELS 6 Xposition Yposition Zposition Xrotation Yrotation Zrotation 
	JOINT RightUpLeg
	{
		OFFSET 0.103459 1.857839 10.548500
		CHANNELS 3 Xrotation Yrotation Zrotation
		JOINT RightLeg
		{
			OFFSET 43.500004 -0.000053 -0.000011
			CHANNELS 3 Xrotation Yrotation Zrotation
			JOINT RightFoot
			{
				OFFSET 42.372192 0.000015 -0.000008
				CHANNELS 3 Xrotation Yrotation Zrotation
				JOINT RightToe
				{
					OFFSET 17.300007 0.000002 0.000013
					CHANNELS 3 Xrotation Yrotation Zrotation
					End Site
					{
						OFFSET 0.000000 0.000000 0.000000
					}
				}
			}
		}
	}
	JOINT LeftUpLeg
	{
		OFFSET 0.103460 1.857826 -10.548500
		CHANNELS 3 Xrotation Yrotation Zrotation
		JOINT LeftLeg
		{
			OFFSET 43.500046 -0.000019 0.000011
			CHANNELS 3 Xrotation Yrotation Zrotation
			JOINT LeftFoot
			{
				OFFSET 42.372261 0.000004 0.000012
				CHANNELS 3 Xrotation Yrotation Zrotation
				JOINT LeftToe
				{
					OFFSET 17.299995 -0.000004 0.000006
					CHANNELS 3 Xrotation Yrotation Zrotation
					End Site
					{
						OFFSET 0.000000 0.000000 0.000000
					}
				}
			}
		}
	}
	JOINT Spine
	{
		OFFSET 6.901963 -2.603745 -0.000005
		CHANNELS 3 Xrotation Yrotation Zrotation
		JOINT Spine1
		{
			OFFSET 12.588102 0.000012 0.000012
			CHANNELS 3 Xrotation Yrotation Zrotation
			JOINT Spine2
			{
				OFFSET 12.343202 0.000010 -0.000009
				CHANNELS 3 Xrotation Yrotation Zrotation
				JOINT Neck
				{
					OFFSET 25.832901 -0.000008 0.000006
					CHANNELS 3 Xrotation Yrotation Zrotation
					JOINT Head
					{
						OFFSET 11.766603 0.000007 -0.000001
						CHANNELS 3 Xrotation Yrotation Zrotation
						End Site
						{
							OFFSET 0.000000 0.000000 0.000000
						}
					}
				}
				JOINT RightShoulder
				{
					OFFSET 19.745903 -1.480391 6.000108
					CHANNELS 3 Xrotation Yrotation Zrotation
					JOINT RightArm
					{
						OFFSET 11.284125 -0.000031 -0.000021
						CHANNELS 3 Xrotation Yrotation Zrotation
						JOINT RightForeArm
						{
							OFFSET 33.000046 0.000024 0.000034
							CHANNELS 3 Xrotation Yrotation Zrotation
							JOINT RightHand
							{
								OFFSET 25.200014 0.000020 0.000007
								CHANNELS 3 Xrotation Yrotation Zrotation
								End Site
								{
									OFFSET 0.000000 0.000000 0.000000
								}
							}
						}
					}
				}
				JOINT LeftShoulder
				{
					OFFSET 19.746098 -1.480371 -6.000075
					CHANNELS 3 Xrotation Yrotation Zrotation
					JOINT LeftArm
					{
						OFFSET 11.284128 -0.000021 -0.000009
						CHANNELS 3 Xrotation Yrotation Zrotation
						JOINT LeftForeArm
						{
							OFFSET 33.000095 0.000034 0.000006
							CHANNELS 3 Xrotation Yrotation Zrotation
							JOINT LeftHand
							{
								OFFSET 25.199781 0.000147 0.000427
								CHANNELS 3 Xrotation Yrotation Zrotation
								End Site
								{
									OFFSET 0.000000 0.000000 0.000000
								}
							}
						}
					}
				}
			}
		}
	}
}
MOTION
Frames: 10
Frame Time: 0.033333
194.335693 86.134628 -542.060913 91.845219 0.681970 40.837278 148.318924 1.035507 172.391953 -29.164891 1.730057 -2.149579 73.975778 1.853438 0.952718 21.454558 0.003104 0.000017 -173.808821 9.760191 -167.065785 -43.961809 -2.572935 -1.741839 75.588126 2.893280 5.551310 21.454555 -0.003092 -0.000001 6.744333 -0.510366 1.637014 3.460798 -1.068696 3.258386 3.143189 -1.049145 3.264775 -3.166001 -7.458037 -0.150980 -17.037086 5.014719 -3.837853 -174.784076 -74.337648 -6.729973 25.876144 53.617221 50.394410 -32.452531 -11.157532 1.057124 11.618822 3.149962 4.971912 -174.640588 82.361385 6.985264 -28.244594 -51.393383 -1.676042 -61.511406 19.183524 -2.442752 3.545603 15.192245 -5.044369 
191.636505 86.279289 -538.758179 92.474204 1.888225 41.453675 149.794545 2.601697 172.517464 -32.484793 1.201739 -2.396093 78.147302 1.910450 0.720226 21.454560 0.003113 0.000017 -178.850443 12.054904 -168.548428 -55.809216 -3.284447 0.003060 67.207852 2.571980 6.708065 21.454563 -0.003096 0.000002 6.841166 -0.780734 1.294491 3.651937 -1.601332 2.564292 3.334041 -1.585964 2.573894 -2.589161 -7.229047 0.046995 -17.325121 5.330913 -3.674259 -176.187011 -73.975682 -5.286990 21.941271 53.990572 48.098383 -32.519080 -11.336190 1.070156 11.605199 3.150853 6.708947 -178.539629 82.084483 3.033797 -26.428457 -53.569601 -5.210850 -58.239042 19.243479 -2.322707 3.412025 15.142716 -3.216561 
188.978897 86.998016 -535.843872 93.057216 2.527876 41.442381 152.665520 3.489000 170.216497 -32.271227 1.832200 -1.372689 80.781774 1.150022 0.716852 21.454557 0.003114 0.000017 174.129813 12.882705 -171.881519 -66.922569 -3.095501 3.309790 63.037783 0.989313 8.015225 21.454560 -0.003089 0.000004 6.885842 -0.944755 1.033534 3.742267 -1.921945 2.036642 3.424199 -1.909751 2.048206 -2.154305 -6.945986 0.336624 -17.160905 5.353834 -3.281723 -177.788950 -73.743927 -3.639037 17.478656 54.588002 45.800390 -33.091963 -12.174840 1.136829 11.909880 3.221452 7.287437 -177.026687 82.181567 4.567192 -26.375286 -55.832176 -9.036885 -53.150548 18.749392 -2.106540 5.544152 13.780234 -1.485776 
186.300201 88.125290 -533.109009 93.155352 2.564183 40.548282 156.538811 3.460016 170.608577 -30.051637 0.983781 -1.854581 82.431839 1.391589 0.320296 21.454560 0.003105 0.000016 166.897653 11.726811 -174.732495 -74.399379 -3.165404 4.695268 65.892290 -0.787926 6.539368 21.454551 -0.003093 -0.000002 6.906349 -0.923129 0.886018 3.786107 -1.874332 1.741978 3.467981 -1.863910 1.753254 -2.252857 -6.391809 0.824253 -15.836113 5.419607 -2.607270 -177.581039 -73.567701 -3.849989 12.149873 54.901890 42.512013 -34.291661 -12.121150 1.159508 11.797488 1.522354 6.827146 -173.631946 82.009569 8.003121 -27.017843 -57.405281 -13.294284 -47.146262 17.478244 -1.824856 7.673476 10.032190 -1.503219 
183.573502 89.276260 -530.480896 93.229336 2.258471 40.347724 160.444818 3.945210 170.685157 -26.902694 1.550075 -1.961794 83.181165 1.260981 -0.505712 21.454560 0.003104 0.000016 160.443794 10.059603 -175.097568 -77.828571 -3.692994 5.020878 68.784451 -1.388845 5.928788 21.454557 -0.003092 -0.000004 6.848762 -0.774957 0.563238 3.677472 -1.567130 1.101993 3.359317 -1.560574 1.111437 -2.119997 -5.668825 1.216733 -14.395464 5.021874 -1.813957 -176.994025 -73.145677 -4.447012 6.535579 54.456787 40.128123 -35.857486 -12.194942 1.199966 10.404606 -1.378526 4.965012 -172.738544 81.673736 8.905693 -26.075692 -58.619511 -17.592207 -42.241756 15.569066 -1.555328 9.262768 4.124554 -4.284004 
180.600601 90.221291 -528.017212 93.434939 1.749663 40.970890 164.155496 4.331499 171.763917 -23.628916 1.839791 -2.181883 83.617491 1.216296 -1.358413 21.454560 0.003105 0.000016 154.908526 8.659302 -174.340428 -77.699740 -3.550288 5.015238 70.896401 -1.014855 7.363746 21.454555 -0.003092 -0.000000 6.723695 -0.606496 0.167792 3.433064 -1.217570 0.317816 3.114886 -1.215768 0.325158 -1.450589 -4.374613 1.146243 -14.175966 4.133603 -1.239682 -178.871972 -73.692878 -2.526952 1.691606 54.560330 37.886834 -37.645288 -12.789679 1.281553 9.519314 -4.494329 3.092770 -169.599457 81.362730 12.086457 -22.961013 -60.254454 -22.686832 -39.187213 14.122796 -1.379491 11.108439 -1.013672 -8.728324 
177.535095 90.677032 -525.504211 93.782220 1.487601 41.850222 167.448330 4.846299 171.338656 -21.330230 2.646807 -1.611969 84.621468 0.658921 -2.101695 21.454557 0.003103 0.000016 150.280882 7.788410 -173.099055 -74.535075 -2.839175 4.412186 72.871439 -0.928379 6.769854 21.454560 -0.003092 -0.000003 6.599672 -0.515742 -0.236336 3.188817 -1.024820 -0.486565 2.870658 -1.027887 -0.480378 -0.782879 -3.318737 1.015314 -14.085540 3.926566 -1.034124 178.452038 -74.569321 0.199936 -2.780800 54.546628 35.024517 -40.196046 -13.661313 1.403408 8.468849 -6.881358 1.904914 -168.871523 80.724681 12.824239 -16.552982 -61.266162 -30.836515 -37.933095 13.484933 -1.306404 12.371394 -3.617980 -10.147142 
174.459900 90.694344 -522.955505 94.355020 1.431413 42.755495 170.154615 5.478303 171.471817 -20.228975 3.133174 -1.356825 86.182869 0.365241 -2.803561 21.454558 0.003110 0.000017 146.425486 7.492496 -172.551588 -68.915304 -1.591002 2.860825 74.641441 -0.067849 6.442077 21.454553 -0.003093 0.000001 6.520114 -0.487426 -0.619373 3.032722 -0.958689 -1.251108 2.714641 -0.966374 -1.245303 -1.137505 -2.456210 0.813179 -13.740584 3.728759 -0.975129 177.192019 -75.109029 1.478029 -7.223551 53.947180 30.507494 -43.730679 -14.385270 1.548069 7.243064 -7.283184 2.482027 -164.027075 80.915653 17.740134 -9.235205 -62.775442 -39.105401 -37.492677 13.260899 -1.281014 12.721013 -5.892308 -10.354250 
171.283798 90.299210 -520.399780 95.170025 1.353226 43.549925 171.962648 5.689300 171.884757 -20.831978 2.835972 -1.159198 88.548130 0.271291 -2.914220 21.454555 0.003108 0.000017 143.395997 7.137100 -171.919973 -60.955265 -0.515780 1.611374 75.793250 0.604481 6.070477 21.454553 -0.003090 -0.000001 6.413271 -0.505921 -0.987541 2.822361 -0.988043 -1.986960 2.504433 -1.000162 -1.980964 -1.787706 -1.488928 0.589274 -14.029920 3.388208 -0.887731 176.943946 -75.610618 1.719013 -11.062515 52.997886 25.732034 -47.966783 -14.961861 1.713083 6.222716 -6.600946 2.756829 -160.934857 80.308818 20.885076 -0.068106 -62.908918 -46.831899 -38.466427 12.940841 -1.284098 13.064017 -6.636396 -10.280506 
168.039703 89.784447 -517.854614 96.162315 1.255732 44.184695 173.776897 5.927005 172.590479 -21.253711 2.468373 -1.137444 90.857382 0.275824 -3.216889 21.454560 0.003104 0.000017 141.860037 6.916702 -171.331470 -49.621075 0.345207 0.323565 75.018789 1.781336 6.893485 21.454551 -0.003096 0.000000 6.287853 -0.596204 -1.309235 2.576382 -1.163724 -2.631252 2.258559 -1.179737 -2.624184 -2.503841 -0.599068 0.372851 -14.508181 3.315500 -0.894832 175.442015 -75.765779 3.250982 -13.648444 51.548978 20.671694 -52.332551 -15.026428 1.859297 5.155607 -5.917854 4.122265 -157.717264 79.704435 24.163256 8.815066 -62.734666 -54.036041 -39.250935 12.565969 -1.279323 12.925585 -5.226225 -8.957748 
